HIERARCHY
ROOT Hips
{
	OFFSET 0.000000 0.000000 0.000000 
	CHANNELS 6 Xposition Yposition Zposition Yrotation Xrotation Zrotation
	JOINT Spine
	{
		OFFSET 0.000000 0.072080 0.012321 
		CHANNELS 3 Xrotation Yrotation Zrotation
		JOINT Spine1
		{
			OFFSET 0.000000 0.126984 -0.001294 
			CHANNELS 3 Xrotation Yrotation Zrotation
			JOINT Spine2
			{
				OFFSET 0.000000 0.106559 -0.010096 
				CHANNELS 3 Xrotation Yrotation Zrotation
				JOINT Neck
				{
					OFFSET 0.000000 0.108417 -0.034017 
					CHANNELS 3 Xrotation Yrotation Zrotation
					JOINT Neck1
					{
						OFFSET 0.000000 0.033906 0.007241 
						CHANNELS 3 Xrotation Yrotation Zrotation
						JOINT Head
						{
							OFFSET 0.000000 0.031458 0.006707 
							CHANNELS 3 Xrotation Yrotation Zrotation
							End Site
							{
								OFFSET 0.000000 0.179920 0.000962 
							}
						}
					}
				}
				JOINT LeftShoulder
				{
					OFFSET 0.048002 0.079586 -0.029634 
					CHANNELS 3 Zrotation Xrotation Yrotation
					JOINT LeftArm
					{
						OFFSET 0.096243 -0.008695 -0.014012 
						CHANNELS 3 Zrotation Xrotation Yrotation
						JOINT LeftForeArm
						{
							OFFSET 0.216305 0.000000 0.000000 
							CHANNELS 3 Xrotation Zrotation Yrotation
							JOINT LeftHand
							{
								OFFSET 0.217764 0.000000 0.000000 
								CHANNELS 3 Zrotation Yrotation Xrotation
								JOINT LeftHandThumb1
								{
									OFFSET 0.018582 -0.007835 0.020476 
									CHANNELS 3 Zrotation Xrotation Yrotation
									JOINT LeftHandThumb2
									{
										OFFSET 0.026269 -0.007835 0.022186 
										CHANNELS 3 Zrotation Xrotation Yrotation
										JOINT LeftHandThumb3
										{
											OFFSET 0.035170 -0.010504 0.017018 
											CHANNELS 3 Zrotation Xrotation Yrotation
											End Site
											{
												OFFSET 0.020312 -0.007813 0.007813 
											}
										}
									}
								}
								JOINT LeftHandMiddle1
								{
									OFFSET 0.081749 0.004803 0.003358 
									CHANNELS 3 Zrotation Xrotation Yrotation
									JOINT LeftHandMiddle2
									{
										OFFSET 0.045251 0.000000 0.000000 
										CHANNELS 3 Zrotation Xrotation Yrotation
										JOINT LeftHandMiddle3
										{
											OFFSET 0.029009 0.000000 0.000000 
											CHANNELS 3 Zrotation Xrotation Yrotation
											End Site
											{
												OFFSET 0.017969 0.000000 0.000000 
											}
										}
									}
								}
								JOINT LeftHandIndex1
								{
									OFFSET 0.081207 0.004803 0.021137 
									CHANNELS 3 Zrotation Xrotation Yrotation
									JOINT LeftHandIndex2
									{
										OFFSET 0.043354 0.000000 0.000000 
										CHANNELS 3 Zrotation Xrotation Yrotation
										JOINT LeftHandIndex3
										{
											OFFSET 0.026493 0.000000 0.000000 
											CHANNELS 3 Zrotation Xrotation Yrotation
											End Site
											{
												OFFSET 0.019531 0.000000 0.000000 
											}
										}
									}
								}
								JOINT LeftHandRing1
								{
									OFFSET 0.080666 0.002509 -0.014652 
									CHANNELS 3 Zrotation Xrotation Yrotation
									JOINT LeftHandRing2
									{
										OFFSET 0.042541 0.000000 0.000000 
										CHANNELS 3 Zrotation Xrotation Yrotation
										JOINT LeftHandRing3
										{
											OFFSET 0.029009 0.000000 0.000000 
											CHANNELS 3 Zrotation Xrotation Yrotation
											End Site
											{
												OFFSET 0.015625 0.000000 0.000000 
											}
										}
									}
								}
								JOINT LeftHandPinky1
								{
									OFFSET 0.078227 -0.000612 -0.030993 
									CHANNELS 3 Zrotation Xrotation Yrotation
									JOINT LeftHandPinky2
									{
										OFFSET 0.028721 0.000000 0.000000 
										CHANNELS 3 Zrotation Xrotation Yrotation
										JOINT LeftHandPinky3
										{
											OFFSET 0.021963 0.000000 0.000000 
											CHANNELS 3 Zrotation Xrotation Yrotation
											End Site
											{
												OFFSET 0.022656 0.000000 0.000000 
											}
										}
									}
								}
							}
						}
					}
				}
				JOINT RightShoulder
				{
					OFFSET -0.047970 0.079586 -0.029634 
					CHANNELS 3 Zrotation Xrotation Yrotation
					JOINT RightArm
					{
						OFFSET -0.096274 -0.008695 -0.014012 
						CHANNELS 3 Zrotation Xrotation Yrotation
						JOINT RightForeArm
						{
							OFFSET -0.216305 0.000000 0.000000 
							CHANNELS 3 Xrotation Zrotation Yrotation
							JOINT RightHand
							{
								OFFSET -0.217764 0.000000 0.000000 
								CHANNELS 3 Zrotation Yrotation Xrotation
								JOINT RightHandThumb1
								{
									OFFSET -0.019670 -0.007318 0.019638 
									CHANNELS 3 Zrotation Xrotation Yrotation
									JOINT RightHandThumb2
									{
										OFFSET -0.025498 -0.008492 0.023179 
										CHANNELS 3 Zrotation Xrotation Yrotation
										JOINT RightHandThumb3
										{
											OFFSET -0.034504 -0.010705 0.016680 
											CHANNELS 3 Zrotation Xrotation Yrotation
											End Site
											{
												OFFSET -0.020312 -0.007813 0.007813 
											}
										}
									}
								}
								JOINT RightHandIndex1
								{
									OFFSET -0.081770 0.003825 0.021187 
									CHANNELS 3 Zrotation Xrotation Yrotation
									JOINT RightHandIndex2
									{
										OFFSET -0.042006 0.000000 0.000000 
										CHANNELS 3 Zrotation Xrotation Yrotation
										JOINT RightHandIndex3
										{
											OFFSET -0.026449 0.000000 0.000000 
											CHANNELS 3 Zrotation Xrotation Yrotation
											End Site
											{
												OFFSET -0.020312 0.000000 0.000000 
											}
										}
									}
								}
								JOINT RightHandMiddle1
								{
									OFFSET -0.084059 0.003825 0.003342 
									CHANNELS 3 Zrotation Xrotation Yrotation
									JOINT RightHandMiddle2
									{
										OFFSET -0.043881 0.000000 0.000000 
										CHANNELS 3 Zrotation Xrotation Yrotation
										JOINT RightHandMiddle3
										{
											OFFSET -0.029191 0.000000 0.000000 
											CHANNELS 3 Zrotation Xrotation Yrotation
											End Site
											{
												OFFSET -0.017969 0.000000 0.000000 
											}
										}
									}
								}
								JOINT RightHandRing1
								{
									OFFSET -0.081798 0.003030 -0.015127 
									CHANNELS 3 Zrotation Xrotation Yrotation
									JOINT RightHandRing2
									{
										OFFSET -0.042198 0.000000 0.000000 
										CHANNELS 3 Zrotation Xrotation Yrotation
										JOINT RightHandRing3
										{
											OFFSET -0.026497 0.000000 0.000000 
											CHANNELS 3 Zrotation Xrotation Yrotation
											End Site
											{
												OFFSET -0.017188 0.000000 0.000000 
											}
										}
									}
								}
								JOINT RightHandPinky1
								{
									OFFSET -0.077902 -0.000930 -0.030891 
									CHANNELS 3 Zrotation Xrotation Yrotation
									JOINT RightHandPinky2
									{
										OFFSET -0.028538 0.000000 0.000000 
										CHANNELS 3 Zrotation Xrotation Yrotation
										JOINT RightHandPinky3
										{
											OFFSET -0.021734 0.000000 0.000000 
											CHANNELS 3 Zrotation Xrotation Yrotation
											End Site
											{
												OFFSET -0.022656 0.000000 0.000000 
											}
										}
									}
								}
							}
						}
					}
				}
			}
		}
	}
	JOINT LeftUpLeg
	{
		OFFSET 0.075264 -0.025573 0.000000 
		CHANNELS 3 Xrotation Yrotation Zrotation
		JOINT LeftLeg
		{
			OFFSET 0.000000 -0.326016 -0.013516 
			CHANNELS 3 Xrotation Yrotation Zrotation
			JOINT LeftFoot
			{
				OFFSET 0.000098 -0.306172 -0.006623 
				CHANNELS 3 Xrotation Yrotation Zrotation
				JOINT LeftToeBase
				{
					OFFSET -0.001432 -0.095259 0.064705 
					CHANNELS 3 Xrotation Yrotation Zrotation
					End Site
					{
						OFFSET 0.000000 0.000000 0.079438 
					}
				}
			}
		}
	}
	JOINT RightUpLeg
	{
		OFFSET -0.075264 -0.025573 0.000000 
		CHANNELS 3 Xrotation Yrotation Zrotation
		JOINT RightLeg
		{
			OFFSET 0.000000 -0.326016 -0.013516 
			CHANNELS 3 Xrotation Yrotation Zrotation
			JOINT RightFoot
			{
				OFFSET 0.000098 -0.306172 -0.006623 
				CHANNELS 3 Xrotation Yrotation Zrotation
				JOINT RightToeBase
				{
					OFFSET -0.001432 -0.095259 0.064705 
					CHANNELS 3 Xrotation Yrotation Zrotation
					End Site
					{
						OFFSET 0.000025 0.000000 0.079438 
					}
				}
			}
		}
	}
}
MOTION
Frames: 6
Frame Time: 0.033333
0.284994 0.675137 0.707619 25.254400 5.386400 -14.142800 12.592500 -5.074400 2.322300 9.538600 -1.443600 0.413600 9.535400 -1.425400 0.441000 1.237800 1.431800 -1.046600 -0.000000 0.000000 -0.000000 13.539200 7.136400 -10.934900 -22.146601 4.850500 -13.637800 -53.248501 8.122900 -10.781000 -0.000000 0.000000 -15.999400 6.245300 26.721300 50.184101 4.151900 5.191900 11.631500 14.444100 5.896200 -11.227500 18.876101 -8.026700 -28.401300 -7.101000 0.000000 3.060700 -22.336700 0.001100 -0.005700 -20.918800 0.001000 -0.005400 4.785700 -0.005300 -0.772400 -24.349001 0.001300 -0.006200 -14.807500 0.000500 -0.003800 -7.685500 -0.002000 3.099500 -38.875500 0.003300 -0.009500 -19.234301 0.000800 -0.004900 -14.473900 -0.203800 -1.083800 -29.725901 0.002000 -0.007400 -13.467200 0.000400 -0.003500 15.986700 1.633700 3.497700 55.740200 -0.385400 27.769600 0.000000 0.000000 7.832800 6.299100 20.458401 -12.560200 -8.727500 -0.507400 -8.388100 -11.563200 -7.045900 16.427601 -38.067902 -27.648800 45.013401 -9.038900 0.003200 -1.165700 21.195400 0.000500 0.002900 23.858700 0.000700 0.003200 -21.561800 0.004600 -10.311900 35.357800 0.001500 0.004600 21.736601 0.000600 0.002900 -4.741600 -0.009100 -11.590400 40.244099 0.001900 0.005100 19.055901 0.000400 0.002600 -19.316401 -11.073500 -25.001600 40.721100 0.001900 0.005200 18.014999 0.000400 0.002400 -11.378300 3.220000 -7.902500 40.419601 7.011000 0.669100 -36.472099 -0.740600 18.086201 -2.153600 0.000000 -0.000000 -39.522400 0.157400 4.964800 84.994904 -9.942800 -1.961600 -14.706800 -10.377000 -1.990700 -8.216000 0.000000 -0.000000 
0.325055 0.694051 0.769808 27.391300 5.782300 -15.773900 12.308500 -6.439600 3.917800 9.489200 -1.821300 0.861400 9.476300 -1.807400 0.899500 1.257700 1.589100 -0.839200 -0.000000 0.000000 -0.000000 13.254600 8.128700 -10.699200 -21.090599 4.564300 -13.205000 -54.234299 4.785200 -12.262000 -0.000000 0.000000 -17.508801 -0.322500 15.777000 29.172501 4.151900 5.191900 11.631500 15.329300 5.083200 -12.940200 11.166600 -5.631400 -27.231501 -4.674400 -0.000000 3.256400 -22.661800 0.001200 -0.005800 -20.565300 0.001000 -0.005300 7.980700 0.279600 0.861600 -24.218399 0.001300 -0.006200 -15.752800 0.000600 -0.004100 -1.641400 -0.001100 3.954000 -39.893002 0.003500 -0.009600 -18.820101 0.000800 -0.004900 -7.935400 -0.115700 -0.630600 -30.906900 0.002100 -0.007700 -13.320900 0.000400 -0.003500 17.079700 1.701000 3.383000 53.984001 -0.978700 27.889500 0.000000 -0.000000 0.065100 19.450399 -1.769300 -14.928900 -8.727500 -0.507400 -8.388100 -12.253200 -8.820700 15.828800 -38.517200 -27.661900 45.121101 0.511300 -0.008200 -0.633500 17.344299 0.000400 0.002400 20.562901 0.000500 0.002800 -6.279800 -0.025900 -8.031900 37.399399 0.001600 0.004800 20.799601 0.000500 0.002800 3.484400 -0.007800 -6.621600 49.766102 0.002800 0.006000 19.858200 0.000500 0.002700 -20.697001 -11.676300 -25.000000 44.146801 0.002200 0.005500 19.728201 0.000500 0.002700 -1.653100 4.053800 -5.370000 30.059999 7.417100 0.952800 -23.559401 -3.265000 19.368200 -7.276100 0.000000 -0.000000 -43.491001 -0.455000 8.967600 73.575500 -9.924800 -1.722100 -15.870700 -10.561700 -0.279000 -8.412400 0.000000 -0.000000 
0.367016 0.704663 0.831366 29.651501 7.017600 -16.186399 11.081400 -7.239200 4.642500 9.338400 -2.017200 1.098600 9.318500 -2.005700 1.138900 1.228800 1.593600 -0.625900 -0.000000 0.000000 -0.000000 12.544300 8.373200 -10.024500 -19.963100 4.403700 -13.249900 -54.941101 2.049500 -12.989600 -0.000000 -0.000000 -27.777201 -11.753700 15.737000 9.415500 4.151900 5.191900 11.631500 15.836700 4.607500 -13.958800 10.436000 -5.621800 -27.180201 -3.879000 0.000100 3.356200 -22.742300 0.001200 -0.005800 -20.462200 0.001000 -0.005300 9.520300 0.393700 1.298300 -24.206699 0.001300 -0.006200 -15.972500 0.000600 -0.004100 -0.054800 0.000100 4.135700 -40.047298 0.003500 -0.009700 -18.803699 0.000800 -0.004800 -6.250600 -0.113000 -0.618700 -30.954901 0.002100 -0.007700 -13.352900 0.000400 -0.003500 18.253599 1.799900 3.362400 52.566799 -2.924400 24.678101 -0.000000 0.000000 -0.000000 29.755899 -23.693701 -14.194500 -8.727500 -0.507400 -8.388100 -12.200700 -8.652900 15.890600 -41.798000 -27.661600 45.120899 5.170700 0.014700 1.502900 17.354099 0.000400 0.002400 20.395000 0.000500 0.002800 -0.484500 0.008600 -4.504200 39.093800 0.001800 0.005000 20.995600 0.000500 0.002800 2.027700 0.001200 -3.266800 51.775902 0.003000 0.006200 20.139200 0.000500 0.002700 -28.829700 -11.949300 -24.584200 42.116600 0.002000 0.005300 19.513599 0.000500 0.002600 5.928100 3.318600 -4.733900 21.267401 6.374300 2.158000 -9.606000 -1.086100 18.570299 -14.884400 0.000000 -0.000000 -46.500801 -0.951700 10.481900 60.515598 -9.925500 -1.418500 -15.940100 -8.963100 1.982900 -8.599100 0.000000 -0.000000 
0.411248 0.706513 0.892807 31.700001 8.475800 -15.877600 9.414200 -7.459500 5.051200 9.256800 -2.048700 1.131700 9.236600 -2.031700 1.169500 0.975800 1.531200 -0.447500 -0.000000 0.000000 -0.000000 11.157700 8.314700 -9.164400 -18.650801 4.090800 -12.768700 -55.504200 0.430400 -14.727200 -0.000000 0.000000 -39.000500 -22.164000 18.734200 -2.486800 4.151900 5.191900 11.631500 15.966100 4.488400 -14.227300 12.657800 -5.722500 -27.675800 -3.618300 -0.000100 3.296500 -22.647800 0.001200 -0.005800 -20.571899 0.001000 -0.005300 9.251400 0.234900 0.728700 -24.193300 0.001300 -0.006200 -15.822400 0.000600 -0.004100 0.139700 -0.002400 3.580900 -39.762100 0.003500 -0.009600 -19.072100 0.000800 -0.004900 -5.515500 -0.197600 -1.058400 -30.611700 0.002100 -0.007700 -13.601200 0.000400 -0.003500 19.097300 1.882400 3.373500 50.929298 -1.195500 18.625799 -0.000000 0.000000 2.528500 42.556999 -35.314098 -14.791100 -8.727500 -0.507300 -8.388100 -11.855900 -7.675100 16.232100 -42.326801 -27.661501 45.120899 -6.241000 0.005700 4.404700 18.880600 0.000400 0.002600 21.958900 0.000600 0.003000 -8.476500 0.002800 -2.342700 39.378601 0.001800 0.005000 21.301201 0.000500 0.002900 -0.166900 0.000000 -3.375400 49.560299 0.002800 0.006000 19.888300 0.000500 0.002700 -21.254601 -12.463300 -21.826799 42.190399 0.002100 0.005300 19.173201 0.000400 0.002600 10.947000 0.734800 -5.056400 16.800200 6.958900 4.427500 -0.212200 0.540600 12.359100 -15.457000 0.000000 -0.000000 -48.321098 -1.729400 10.501400 47.987202 -9.934600 -0.563500 -16.604000 -4.801500 3.534200 -8.766100 -0.000000 -0.000000 
0.456578 0.699460 0.952675 33.396400 9.385200 -15.457300 8.058500 -7.447600 5.665800 9.234800 -2.017000 1.199700 9.212900 -1.994600 1.236100 0.587000 1.539000 -0.561200 -0.000000 0.000000 -0.000000 9.911000 8.191200 -9.067400 -18.472900 3.940800 -12.256200 -54.515400 0.936100 -16.320700 0.000000 0.000000 -50.760799 -27.423300 20.323900 -7.556500 4.151900 5.191900 11.631500 14.152600 6.170800 -10.690900 23.725901 -11.985200 -28.757000 -7.174400 -0.000400 3.016600 -21.965099 0.001100 -0.005600 -21.417601 0.001000 -0.005500 0.176800 -0.008200 -1.492100 -24.172701 0.001300 -0.006200 -14.849800 0.000500 -0.003900 -5.824700 -0.004100 1.829800 -37.907200 0.003200 -0.009200 -20.246300 0.000900 -0.005200 -10.508500 -0.433200 -2.319700 -28.188601 0.001800 -0.007100 -14.511700 0.000500 -0.003800 18.439899 1.819200 3.319200 50.065800 2.465300 13.971500 -0.000000 0.000000 8.771900 52.080799 -29.781000 -20.270800 -8.727500 -0.507300 -8.388100 -10.408800 -4.539900 17.128000 -36.825901 -27.403601 43.292301 -6.000700 -0.001300 5.453200 21.795500 0.000600 0.003000 23.669500 0.000700 0.003200 -6.660300 -0.006400 -0.895300 39.125801 0.001800 0.005000 21.698999 0.000600 0.002900 2.144500 -0.000800 -3.328200 48.007301 0.002600 0.005900 19.992300 0.000500 0.002700 -11.196500 -12.997300 -18.233000 40.409401 0.001900 0.005100 18.835501 0.000400 0.002600 10.600700 -2.070700 -5.792200 24.521999 7.274100 5.808800 -0.053700 0.687600 9.491200 -5.993800 0.000000 -0.000000 -48.954700 -3.092400 9.880000 38.262901 -8.359700 1.147400 -15.906300 -0.637700 5.042800 -8.903700 0.000000 -0.000000 
0.501437 0.683670 1.011229 35.316101 9.419900 -15.014100 7.426400 -7.393800 6.229300 9.226800 -1.972400 1.291700 9.201600 -1.947700 1.327500 0.290900 1.562700 -0.842000 -0.000000 0.000000 -0.000000 9.416000 7.869500 -9.526900 -19.282801 4.018300 -12.131100 -52.193001 1.616500 -17.309500 -0.000000 -0.000000 -62.529900 -24.613899 19.630699 -4.657400 4.151900 5.191900 11.631500 12.502200 7.604600 -7.693600 30.394100 -17.145901 -29.220100 -10.020100 0.001000 2.685300 -21.615999 0.001100 -0.005500 -21.987700 0.001100 -0.005600 -6.562600 -0.003200 -2.599000 -24.584801 0.001400 -0.006300 -14.274300 0.000500 -0.003700 -10.797700 -0.001900 0.982500 -37.026402 0.003000 -0.009100 -20.931000 0.001000 -0.005400 -15.112000 -0.544900 -2.945300 -26.960400 0.001600 -0.006800 -15.079300 0.000500 -0.003900 16.804600 1.776700 3.756900 50.258400 4.334900 10.177600 0.000000 0.000000 11.669100 51.547600 -19.065399 -25.626400 -8.727500 -0.507300 -8.388100 -5.216100 1.805500 16.399099 -30.130501 -25.228201 29.903999 1.090600 0.003300 5.432500 24.024099 0.000700 0.003200 25.688801 0.000800 0.003400 0.376800 -0.001400 1.202700 38.463200 0.001700 0.004900 22.406099 0.000600 0.003000 3.904100 -0.004500 -2.748900 44.802101 0.002300 0.005600 20.241100 0.000500 0.002700 -3.894700 -13.461500 -14.329900 36.423698 0.001600 0.004700 18.378901 0.000400 0.002500 6.690800 -3.597200 -6.314800 40.681801 7.520500 5.514800 -3.390100 0.350900 9.592800 -2.593600 -0.000000 -0.000000 -50.031101 -3.660100 8.831000 39.212601 -4.694000 1.673200 -8.929300 -0.392000 5.655600 -9.001900 -0.000000 -0.000000 
